<?xml version="1.0" encoding="UTF-8" standalone="no"?>
<svg width="1000px" height="300px" viewBox="0 0 1000 300" version="1.1" xmlns="http://www.w3.org/2000/svg" xmlns:xlink="http://www.w3.org/1999/xlink" xmlns:sketch="http://www.bohemiancoding.com/sketch/ns">
    <!-- Generator: Sketch 3.3 (11970) - http://www.bohemiancoding.com/sketch -->
    <title>squiggle</title>
    <desc>Created with Sketch.</desc>
    <defs></defs>
    <g id="website" stroke="none" stroke-width="1" fill="none" fill-rule="evenodd" sketch:type="MSPage">
        <g id="squiggle" sketch:type="MSArtboardGroup" stroke="#000000">
            <path d="M21.2421875,238.674391 C21.2421875,170.843006 82.972223,123.911187 137.585938,95.857985 C145.681554,91.6995428 153.898236,87.5089525 162.664062,85.06111 C167.025836,83.8430921 172.875083,82.0414129 176.25,85.06111 C204.132109,110.008549 145.086714,189.39995 218.398438,174.232985 C266.561639,164.268827 352.180855,92.8056533 395.003906,65.5532975 C407.13065,57.8359042 434.066992,46.2931994 448.996094,51.2720475 C471.59684,58.8093851 467.453896,124.122164 468.503906,139.74861 C468.849621,144.893598 470.571524,150.884764 475.820312,153.334548 C507.467556,168.105364 535.899429,128.60879 553.847656,113.62361 C588.848837,84.4007249 589.66003,77.0340951 595.296875,117.455641 C598.8514,142.944972 607.88197,168.549551 604.703125,194.088454 C604.160187,198.450426 565.599424,205.471077 563.949219,205.584548 C462.133298,212.585578 489.979602,200.838172 420.433594,220.213454 C418.28177,220.812945 415.882893,221.586763 414.511719,223.350173 C413.835862,224.219363 414.512071,226.14084 415.558594,226.482985 C456.975924,240.023781 528.227263,255.30181 573.003906,248.080641 C593.096034,244.840366 609.439771,232.241602 628.390625,226.135329 C664.936067,214.359794 698.517399,212.119286 729.058594,189.908766 C788.571509,146.629097 789.287462,114.31022 864.210938,94.46736 C866.57172,93.8421265 868.394754,91.4851966 870.832031,91.3306413 C885.084654,90.4268384 912.443832,77.1026265 913.675781,91.3306413 L916.8125,94.46736 C918.268316,111.280858 909.216032,163.306743 947.117187,155.772048 C950.601035,155.079464 953.85279,153.037042 956.429688,150.59236 C960.45658,146.772079 963.164062,141.766839 966.53125,137.354079" id="Path-85" sketch:type="MSShapeGroup"></path>
        </g>
    </g>
</svg>