<svg width="1275" height="800" viewBox="0 0 1275 800" version="1.1" xmlns="http://www.w3.org/2000/svg" xmlns:xlink="http://www.w3.org/1999/xlink">
<title>lg0</title>
<desc>Created using Figma</desc>
<g id="Canvas" transform="translate(-4603 1162)">
<clipPath id="clip-0" clip-rule="evenodd">
<path d="M 4603 -1162L 5878 -1162L 5878 -362L 4603 -362L 4603 -1162Z" fill="#FFFFFF"/>
</clipPath>
<g id="lg0" clip-path="url(#clip-0)">
<path d="M 4603 -1162L 5878 -1162L 5878 -362L 4603 -362L 4603 -1162Z" fill="#E6F1E7"/>
<g id="Images, soon.">
<use xlink:href="#path0_fill" transform="translate(5222 -762)" fill="#232E2E"/>
</g>
</g>
</g>
<defs>
<path id="path0_fill" d="M 7.01172 18L 0.771484 18L 0.771484 17.3066C 0.947266 17.2936 1.20117 17.2741 1.5332 17.248C 1.86523 17.222 2.09961 17.1829 2.23633 17.1309C 2.45117 17.0462 2.60742 16.9323 2.70508 16.7891C 2.80273 16.6393 2.85156 16.4342 2.85156 16.1738L 2.85156 6.13477C 2.85156 5.9069 2.81576 5.7181 2.74414 5.56836C 2.67253 5.41211 2.50326 5.2819 2.23633 5.17773C 2.04102 5.09961 1.79362 5.02799 1.49414 4.96289C 1.20117 4.89128 0.960286 4.84896 0.771484 4.83594L 0.771484 4.14258L 7.01172 4.14258L 7.01172 4.83594C 6.8099 4.84245 6.56901 4.86849 6.28906 4.91406C 6.00911 4.95312 5.76497 5.00521 5.55664 5.07031C 5.30924 5.14844 5.14323 5.27539 5.05859 5.45117C 4.97396 5.62695 4.93164 5.82227 4.93164 6.03711L 4.93164 16.0664C 4.93164 16.2812 4.97721 16.4733 5.06836 16.6426C 5.16602 16.8053 5.32878 16.9355 5.55664 17.0332C 5.69336 17.0853 5.91471 17.1439 6.2207 17.209C 6.5332 17.2676 6.79688 17.3001 7.01172 17.3066L 7.01172 18ZM 24.9902 18L 20.293 18L 20.293 17.3555C 20.4427 17.3424 20.5924 17.3294 20.7422 17.3164C 20.8984 17.3034 21.0352 17.2773 21.1523 17.2383C 21.3346 17.1797 21.4681 17.0788 21.5527 16.9355C 21.6439 16.7858 21.6895 16.5938 21.6895 16.3594L 21.6895 11.3887C 21.6895 10.7116 21.5332 10.1908 21.2207 9.82617C 20.9147 9.45508 20.5306 9.26953 20.0684 9.26953C 19.7493 9.26953 19.4499 9.31836 19.1699 9.41602C 18.89 9.51367 18.6328 9.65039 18.3984 9.82617C 18.2096 9.9694 18.0501 10.1257 17.9199 10.2949C 17.7962 10.4577 17.7018 10.5944 17.6367 10.7051L 17.6367 16.2617C 17.6367 16.4896 17.6758 16.6784 17.7539 16.8281C 17.832 16.9714 17.9655 17.082 18.1543 17.1602C 18.304 17.2188 18.4375 17.2643 18.5547 17.2969C 18.6784 17.3229 18.8379 17.3424 19.0332 17.3555L 19.0332 18L 14.4336 18L 14.4336 17.3555C 14.5833 17.3424 14.7266 17.3294 14.8633 17.3164C 15.0065 17.3034 15.1367 17.2773 15.2539 17.2383C 15.4362 17.1797 15.5697 17.0788 15.6543 16.9355C 15.7454 16.7858 15.791 16.5938 15.791 16.3594L 15.791 11.3887C 15.791 10.7116 15.6348 10.1908 15.3223 9.82617C 15.0163 9.45508 14.6322 9.26953 14.1699 9.26953C 13.8509 9.26953 13.5514 9.32161 13.2715 9.42578C 12.9915 9.52344 12.7344 9.66016 12.5 9.83594C 12.3112 9.97917 12.1517 10.1419 12.0215 10.3242C 11.8913 10.5 11.7936 10.6335 11.7285 10.7246L 11.7285 16.2422C 11.7285 16.4635 11.7741 16.6491 11.8652 16.7988C 11.9564 16.9486 12.0931 17.0625 12.2754 17.1406C 12.4121 17.2057 12.5521 17.2546 12.6953 17.2871C 12.8385 17.3197 12.998 17.3424 13.1738 17.3555L 13.1738 18L 8.49609 18L 8.49609 17.3555C 8.64583 17.3424 8.79883 17.3294 8.95508 17.3164C 9.11784 17.3034 9.25781 17.2773 9.375 17.2383C 9.55729 17.1797 9.69076 17.0788 9.77539 16.9355C 9.86654 16.7858 9.91211 16.5938 9.91211 16.3594L 9.91211 10.373C 9.91211 10.1647 9.86328 9.97917 9.76562 9.81641C 9.67448 9.64714 9.54427 9.50391 9.375 9.38672C 9.2513 9.30859 9.09831 9.24674 8.91602 9.20117C 8.73372 9.14909 8.54492 9.11654 8.34961 9.10352L 8.34961 8.46875L 11.5723 8.25391L 11.709 8.39062L 11.709 9.76758L 11.7773 9.76758C 11.9401 9.60482 12.1387 9.41276 12.373 9.19141C 12.6074 8.97005 12.8255 8.79102 13.0273 8.6543C 13.2552 8.49805 13.5384 8.36784 13.877 8.26367C 14.222 8.15951 14.5931 8.10742 14.9902 8.10742C 15.6152 8.10742 16.1523 8.27669 16.6016 8.61523C 17.0508 8.94727 17.373 9.35091 17.5684 9.82617C 17.8027 9.59831 18.0078 9.39974 18.1836 9.23047C 18.3659 9.05469 18.6035 8.86914 18.8965 8.67383C 19.1439 8.50456 19.4336 8.36784 19.7656 8.26367C 20.1042 8.15951 20.4785 8.10742 20.8887 8.10742C 21.7025 8.10742 22.347 8.37435 22.8223 8.9082C 23.2975 9.44206 23.5352 10.2624 23.5352 11.3691L 23.5352 16.2617C 23.5352 16.4896 23.5742 16.6784 23.6523 16.8281C 23.7305 16.9714 23.8639 17.082 24.0527 17.1602C 24.2025 17.2188 24.349 17.2643 24.4922 17.2969C 24.6419 17.3229 24.8079 17.3424 24.9902 17.3555L 24.9902 18ZM 35.2344 17.8242C 34.9284 17.9349 34.6582 18.0228 34.4238 18.0879C 34.196 18.1595 33.9355 18.1953 33.6426 18.1953C 33.1348 18.1953 32.7279 18.0781 32.4219 17.8438C 32.1224 17.6029 31.9303 17.2546 31.8457 16.7988L 31.7871 16.7988C 31.3639 17.2676 30.9082 17.6257 30.4199 17.873C 29.9382 18.1204 29.3555 18.2441 28.6719 18.2441C 27.9492 18.2441 27.3535 18.0228 26.8848 17.5801C 26.4225 17.1374 26.1914 16.5579 26.1914 15.8418C 26.1914 15.4707 26.2435 15.1387 26.3477 14.8457C 26.4518 14.5527 26.6081 14.2891 26.8164 14.0547C 26.9792 13.8594 27.194 13.6868 27.4609 13.5371C 27.7279 13.3809 27.9785 13.2572 28.2129 13.166C 28.5059 13.0553 29.0983 12.8503 29.9902 12.5508C 30.8887 12.2513 31.4941 12.0169 31.8066 11.8477L 31.8066 10.8809C 31.8066 10.7962 31.7871 10.6335 31.748 10.3926C 31.7155 10.1517 31.6406 9.92383 31.5234 9.70898C 31.3932 9.4681 31.2077 9.25977 30.9668 9.08398C 30.7324 8.90169 30.3971 8.81055 29.9609 8.81055C 29.6615 8.81055 29.3815 8.86263 29.1211 8.9668C 28.8672 9.06445 28.6882 9.16862 28.584 9.2793C 28.584 9.40951 28.6133 9.60156 28.6719 9.85547C 28.737 10.1094 28.7695 10.3438 28.7695 10.5586C 28.7695 10.7865 28.6654 10.9948 28.457 11.1836C 28.2552 11.3724 27.972 11.4668 27.6074 11.4668C 27.2819 11.4668 27.041 11.3529 26.8848 11.125C 26.735 10.8906 26.6602 10.6302 26.6602 10.3438C 26.6602 10.0443 26.7643 9.75781 26.9727 9.48438C 27.1875 9.21094 27.4642 8.9668 27.8027 8.75195C 28.0957 8.56966 28.4505 8.41667 28.8672 8.29297C 29.2839 8.16276 29.6908 8.09766 30.0879 8.09766C 30.6348 8.09766 31.11 8.13672 31.5137 8.21484C 31.9238 8.28646 32.2949 8.44596 32.627 8.69336C 32.959 8.93424 33.2096 9.26302 33.3789 9.67969C 33.5547 10.0898 33.6426 10.6204 33.6426 11.2715C 33.6426 12.2025 33.6328 13.0293 33.6133 13.752C 33.5938 14.4681 33.584 15.2526 33.584 16.1055C 33.584 16.3594 33.6263 16.5612 33.7109 16.7109C 33.8021 16.8607 33.9388 16.9876 34.1211 17.0918C 34.2188 17.1504 34.3717 17.1829 34.5801 17.1895C 34.7949 17.196 35.013 17.1992 35.2344 17.1992L 35.2344 17.8242ZM 31.8262 12.668C 31.2728 12.8307 30.7878 12.9902 30.3711 13.1465C 29.9544 13.3027 29.5671 13.498 29.209 13.7324C 28.8835 13.9538 28.6263 14.2174 28.4375 14.5234C 28.2487 14.8229 28.1543 15.181 28.1543 15.5977C 28.1543 16.138 28.2943 16.5352 28.5742 16.7891C 28.8607 17.043 29.222 17.1699 29.6582 17.1699C 30.1204 17.1699 30.5273 17.0592 30.8789 16.8379C 31.2305 16.61 31.5267 16.3431 31.7676 16.0371L 31.8262 12.668ZM 44.4434 17.0039C 44.7038 17.2513 44.9089 17.5312 45.0586 17.8438C 45.2083 18.1562 45.2832 18.5436 45.2832 19.0059C 45.2832 19.4681 45.1823 19.901 44.9805 20.3047C 44.7786 20.7148 44.4727 21.0697 44.0625 21.3691C 43.6263 21.6751 43.1055 21.9128 42.5 22.082C 41.8945 22.2513 41.1458 22.3359 40.2539 22.3359C 38.7956 22.3359 37.7051 22.1211 36.9824 21.6914C 36.2598 21.2682 35.8984 20.6465 35.8984 19.8262C 35.8984 19.1621 36.1589 18.638 36.6797 18.2539C 37.2005 17.8698 37.8646 17.6615 38.6719 17.6289L 38.6719 17.4922C 38.4766 17.4336 38.2747 17.362 38.0664 17.2773C 37.8581 17.1862 37.679 17.082 37.5293 16.9648C 37.36 16.8281 37.2233 16.6686 37.1191 16.4863C 37.015 16.2975 36.9629 16.0664 36.9629 15.793C 36.9629 15.4479 37.0833 15.1322 37.3242 14.8457C 37.5716 14.5527 37.9427 14.3021 38.4375 14.0938L 38.4375 13.9473C 37.8125 13.6543 37.3275 13.2799 36.9824 12.8242C 36.6374 12.362 36.4648 11.8281 36.4648 11.2227C 36.4648 10.3112 36.8034 9.5625 37.4805 8.97656C 38.1641 8.39062 39.0365 8.09766 40.0977 8.09766C 40.3906 8.09766 40.6803 8.12695 40.9668 8.18555C 41.2598 8.24414 41.556 8.31901 41.8555 8.41016L 45.2148 8.41016L 45.2148 9.34766L 42.9492 9.34766L 42.9492 9.40625C 43.1901 9.6862 43.3691 9.99544 43.4863 10.334C 43.6035 10.6725 43.6621 11.0046 43.6621 11.3301C 43.6621 12.1764 43.3171 12.8926 42.627 13.4785C 41.9434 14.0645 41.1458 14.3574 40.2344 14.3574L 39.0527 14.3574C 38.903 14.4095 38.7467 14.5039 38.584 14.6406C 38.4212 14.7773 38.3398 14.9629 38.3398 15.1973C 38.3398 15.4382 38.4082 15.6237 38.5449 15.7539C 38.6816 15.8776 38.8477 15.9622 39.043 16.0078C 39.2318 16.0599 39.4499 16.0924 39.6973 16.1055C 39.9512 16.1185 40.2116 16.1283 40.4785 16.1348C 40.765 16.1413 41.1556 16.1608 41.6504 16.1934C 42.1517 16.2259 42.5065 16.2454 42.7148 16.252C 43.0143 16.265 43.3138 16.3366 43.6133 16.4668C 43.9193 16.597 44.196 16.776 44.4434 17.0039ZM 41.8066 11.291C 41.8066 10.5293 41.6504 9.92383 41.3379 9.47461C 41.0319 9.01888 40.599 8.79102 40.0391 8.79102C 39.7331 8.79102 39.4694 8.85612 39.248 8.98633C 39.0332 9.11003 38.8574 9.28906 38.7207 9.52344C 38.5905 9.73828 38.4961 9.9987 38.4375 10.3047C 38.3854 10.6042 38.3594 10.9134 38.3594 11.2324C 38.3594 11.9551 38.5156 12.5443 38.8281 13C 39.1471 13.4557 39.5573 13.6836 40.0586 13.6836C 40.6185 13.6836 41.0482 13.459 41.3477 13.0098C 41.6536 12.554 41.8066 11.9811 41.8066 11.291ZM 43.6816 19.3672C 43.6816 19.0026 43.597 18.7031 43.4277 18.4688C 43.2585 18.2344 43.0013 18.0749 42.6562 17.9902C 42.474 17.9642 42.0996 17.9349 41.5332 17.9023C 40.9668 17.8698 40.3092 17.8535 39.5605 17.8535C 38.8574 17.9902 38.3561 18.2181 38.0566 18.5371C 37.7637 18.8626 37.6172 19.2793 37.6172 19.7871C 37.6172 20.015 37.666 20.2331 37.7637 20.4414C 37.8613 20.6497 38.0306 20.8418 38.2715 21.0176C 38.4993 21.1868 38.8053 21.3236 39.1895 21.4277C 39.5736 21.5384 40.0423 21.5938 40.5957 21.5938C 41.5527 21.5938 42.3047 21.4082 42.8516 21.0371C 43.4049 20.6725 43.6816 20.1159 43.6816 19.3672ZM 54.9414 15.7344C 54.5378 16.5026 53.9974 17.1146 53.3203 17.5703C 52.6432 18.026 51.8652 18.2539 50.9863 18.2539C 50.2116 18.2539 49.5312 18.1172 48.9453 17.8438C 48.3659 17.5703 47.8874 17.1992 47.5098 16.7305C 47.1322 16.2617 46.849 15.7148 46.6602 15.0898C 46.4779 14.4648 46.3867 13.804 46.3867 13.1074C 46.3867 12.4824 46.4844 11.8704 46.6797 11.2715C 46.8815 10.666 47.1745 10.1224 47.5586 9.64062C 47.9297 9.17839 48.3887 8.80729 48.9355 8.52734C 49.4889 8.24089 50.1074 8.09766 50.791 8.09766C 51.4941 8.09766 52.0964 8.20833 52.5977 8.42969C 53.099 8.65104 53.5059 8.95378 53.8184 9.33789C 54.1178 9.70247 54.3392 10.1322 54.4824 10.627C 54.6322 11.1217 54.707 11.6589 54.707 12.2383L 54.707 12.8828L 48.3301 12.8828C 48.3301 13.5143 48.3887 14.0872 48.5059 14.6016C 48.6296 15.1159 48.8216 15.5684 49.082 15.959C 49.3359 16.3366 49.668 16.6361 50.0781 16.8574C 50.4883 17.0723 50.9766 17.1797 51.543 17.1797C 52.1224 17.1797 52.6204 17.0462 53.0371 16.7793C 53.4603 16.5059 53.8672 16.0176 54.2578 15.3145L 54.9414 15.7344ZM 52.7832 12.0625C 52.7832 11.6979 52.7507 11.3073 52.6855 10.8906C 52.627 10.474 52.5293 10.1257 52.3926 9.8457C 52.2428 9.54622 52.0378 9.30208 51.7773 9.11328C 51.5169 8.92448 51.1816 8.83008 50.7715 8.83008C 50.0879 8.83008 49.5182 9.11654 49.0625 9.68945C 48.6133 10.2559 48.3691 11.0469 48.3301 12.0625L 52.7832 12.0625ZM 62.4121 13.2832C 62.679 13.5176 62.8841 13.7878 63.0273 14.0938C 63.1706 14.3997 63.2422 14.7741 63.2422 15.2168C 63.2422 16.1087 62.9069 16.8379 62.2363 17.4043C 61.5723 17.9707 60.7096 18.2539 59.6484 18.2539C 59.0885 18.2539 58.571 18.153 58.0957 17.9512C 57.627 17.7493 57.2917 17.5638 57.0898 17.3945L 56.8945 18.0293L 56.1621 18.0293L 56.0645 14.6797L 56.7383 14.6797C 56.7904 14.9336 56.901 15.2298 57.0703 15.5684C 57.2396 15.9069 57.4447 16.2129 57.6855 16.4863C 57.9395 16.7728 58.2422 17.0137 58.5938 17.209C 58.9518 17.4043 59.3522 17.502 59.7949 17.502C 60.4199 17.502 60.9017 17.362 61.2402 17.082C 61.5788 16.7956 61.748 16.3887 61.748 15.8613C 61.748 15.5879 61.6927 15.3535 61.582 15.1582C 61.4779 14.9564 61.3216 14.7806 61.1133 14.6309C 60.8984 14.4811 60.6348 14.3477 60.3223 14.2305C 60.0098 14.1068 59.6615 13.9863 59.2773 13.8691C 58.9714 13.778 58.6296 13.6543 58.252 13.498C 57.8809 13.3353 57.5618 13.1465 57.2949 12.9316C 57.0085 12.7038 56.7741 12.4238 56.5918 12.0918C 56.4095 11.7598 56.3184 11.3691 56.3184 10.9199C 56.3184 10.1322 56.6113 9.46484 57.1973 8.91797C 57.7832 8.37109 58.5677 8.09766 59.5508 8.09766C 59.9284 8.09766 60.3125 8.14648 60.7031 8.24414C 61.1003 8.3418 61.4225 8.45898 61.6699 8.5957L 61.8945 8.08789L 62.5977 8.08789L 62.7441 11.1836L 62.0703 11.1836C 61.9336 10.4935 61.6374 9.93359 61.1816 9.50391C 60.7324 9.06771 60.1823 8.84961 59.5312 8.84961C 58.9974 8.84961 58.5775 8.98307 58.2715 9.25C 57.9655 9.51693 57.8125 9.83919 57.8125 10.2168C 57.8125 10.5098 57.8613 10.7539 57.959 10.9492C 58.0632 11.1445 58.2161 11.3105 58.418 11.4473C 58.6133 11.5775 58.8574 11.7012 59.1504 11.8184C 59.4499 11.929 59.8177 12.056 60.2539 12.1992C 60.6836 12.3359 61.0872 12.4954 61.4648 12.6777C 61.849 12.86 62.1647 13.0618 62.4121 13.2832ZM 68.1934 17.6582C 68.1934 18.127 68.0859 18.5697 67.8711 18.9863C 67.6628 19.403 67.4219 19.7611 67.1484 20.0605C 66.8685 20.373 66.5723 20.6497 66.2598 20.8906C 65.9473 21.1315 65.6608 21.3203 65.4004 21.457L 64.9512 20.8027C 65.2637 20.6074 65.5436 20.4121 65.791 20.2168C 66.0384 20.0215 66.2402 19.8262 66.3965 19.6309C 66.5918 19.403 66.7578 19.1556 66.8945 18.8887C 67.0312 18.6217 67.1191 18.319 67.1582 17.9805L 66.6602 17.9805C 66.224 17.9805 65.8822 17.8665 65.6348 17.6387C 65.3939 17.4108 65.2734 17.1048 65.2734 16.7207C 65.2734 16.4473 65.3841 16.1836 65.6055 15.9297C 65.8268 15.6693 66.1296 15.5391 66.5137 15.5391C 67.0736 15.5391 67.4935 15.7279 67.7734 16.1055C 68.0534 16.4766 68.1934 16.9941 68.1934 17.6582ZM 81.2793 13.2832C 81.5462 13.5176 81.7513 13.7878 81.8945 14.0938C 82.0378 14.3997 82.1094 14.7741 82.1094 15.2168C 82.1094 16.1087 81.7741 16.8379 81.1035 17.4043C 80.4395 17.9707 79.5768 18.2539 78.5156 18.2539C 77.9557 18.2539 77.4382 18.153 76.9629 17.9512C 76.4941 17.7493 76.1589 17.5638 75.957 17.3945L 75.7617 18.0293L 75.0293 18.0293L 74.9316 14.6797L 75.6055 14.6797C 75.6576 14.9336 75.7682 15.2298 75.9375 15.5684C 76.1068 15.9069 76.3118 16.2129 76.5527 16.4863C 76.8066 16.7728 77.1094 17.0137 77.4609 17.209C 77.819 17.4043 78.2194 17.502 78.6621 17.502C 79.2871 17.502 79.7689 17.362 80.1074 17.082C 80.446 16.7956 80.6152 16.3887 80.6152 15.8613C 80.6152 15.5879 80.5599 15.3535 80.4492 15.1582C 80.3451 14.9564 80.1888 14.7806 79.9805 14.6309C 79.7656 14.4811 79.502 14.3477 79.1895 14.2305C 78.877 14.1068 78.5286 13.9863 78.1445 13.8691C 77.8385 13.778 77.4967 13.6543 77.1191 13.498C 76.748 13.3353 76.429 13.1465 76.1621 12.9316C 75.8757 12.7038 75.6413 12.4238 75.459 12.0918C 75.2767 11.7598 75.1855 11.3691 75.1855 10.9199C 75.1855 10.1322 75.4785 9.46484 76.0645 8.91797C 76.6504 8.37109 77.4349 8.09766 78.418 8.09766C 78.7956 8.09766 79.1797 8.14648 79.5703 8.24414C 79.9674 8.3418 80.2897 8.45898 80.5371 8.5957L 80.7617 8.08789L 81.4648 8.08789L 81.6113 11.1836L 80.9375 11.1836C 80.8008 10.4935 80.5046 9.93359 80.0488 9.50391C 79.5996 9.06771 79.0495 8.84961 78.3984 8.84961C 77.8646 8.84961 77.4447 8.98307 77.1387 9.25C 76.8327 9.51693 76.6797 9.83919 76.6797 10.2168C 76.6797 10.5098 76.7285 10.7539 76.8262 10.9492C 76.9303 11.1445 77.0833 11.3105 77.2852 11.4473C 77.4805 11.5775 77.7246 11.7012 78.0176 11.8184C 78.3171 11.929 78.6849 12.056 79.1211 12.1992C 79.5508 12.3359 79.9544 12.4954 80.332 12.6777C 80.7161 12.86 81.0319 13.0618 81.2793 13.2832ZM 92.959 13.0879C 92.959 13.765 92.8516 14.4323 92.6367 15.0898C 92.4219 15.7409 92.1159 16.2943 91.7188 16.75C 91.2695 17.2708 90.7487 17.6582 90.1562 17.9121C 89.5638 18.166 88.8997 18.293 88.1641 18.293C 87.5521 18.293 86.9694 18.179 86.416 17.9512C 85.8626 17.7168 85.3711 17.3783 84.9414 16.9355C 84.5182 16.4993 84.1797 15.9688 83.9258 15.3438C 83.6784 14.7122 83.5547 14.0059 83.5547 13.2246C 83.5547 11.7207 83.9909 10.4902 84.8633 9.5332C 85.7422 8.57617 86.8913 8.09766 88.3105 8.09766C 89.6582 8.09766 90.7682 8.55339 91.6406 9.46484C 92.5195 10.3698 92.959 11.5775 92.959 13.0879ZM 90.9375 13.1074C 90.9375 12.6191 90.8887 12.1048 90.791 11.5645C 90.6934 11.0176 90.5469 10.5553 90.3516 10.1777C 90.1432 9.77409 89.8698 9.45182 89.5312 9.21094C 89.1927 8.96354 88.7793 8.83984 88.291 8.83984C 87.7897 8.83984 87.36 8.96354 87.002 9.21094C 86.6504 9.45833 86.3639 9.79688 86.1426 10.2266C 85.9342 10.6237 85.7878 11.0762 85.7031 11.584C 85.6185 12.0918 85.5762 12.5833 85.5762 13.0586C 85.5762 13.6836 85.625 14.263 85.7227 14.7969C 85.8268 15.3242 85.9896 15.7962 86.2109 16.2129C 86.4323 16.6296 86.709 16.9583 87.041 17.1992C 87.3796 17.4336 87.7962 17.5508 88.291 17.5508C 89.1048 17.5508 89.7493 17.1569 90.2246 16.3691C 90.6999 15.5814 90.9375 14.4941 90.9375 13.1074ZM 103.74 13.0879C 103.74 13.765 103.633 14.4323 103.418 15.0898C 103.203 15.7409 102.897 16.2943 102.5 16.75C 102.051 17.2708 101.53 17.6582 100.938 17.9121C 100.345 18.166 99.681 18.293 98.9453 18.293C 98.3333 18.293 97.7507 18.179 97.1973 17.9512C 96.6439 17.7168 96.1523 17.3783 95.7227 16.9355C 95.2995 16.4993 94.9609 15.9688 94.707 15.3438C 94.4596 14.7122 94.3359 14.0059 94.3359 13.2246C 94.3359 11.7207 94.7721 10.4902 95.6445 9.5332C 96.5234 8.57617 97.6725 8.09766 99.0918 8.09766C 100.439 8.09766 101.549 8.55339 102.422 9.46484C 103.301 10.3698 103.74 11.5775 103.74 13.0879ZM 101.719 13.1074C 101.719 12.6191 101.67 12.1048 101.572 11.5645C 101.475 11.0176 101.328 10.5553 101.133 10.1777C 100.924 9.77409 100.651 9.45182 100.312 9.21094C 99.974 8.96354 99.5605 8.83984 99.0723 8.83984C 98.571 8.83984 98.1413 8.96354 97.7832 9.21094C 97.4316 9.45833 97.1452 9.79688 96.9238 10.2266C 96.7155 10.6237 96.569 11.0762 96.4844 11.584C 96.3997 12.0918 96.3574 12.5833 96.3574 13.0586C 96.3574 13.6836 96.4062 14.263 96.5039 14.7969C 96.6081 15.3242 96.7708 15.7962 96.9922 16.2129C 97.2135 16.6296 97.4902 16.9583 97.8223 17.1992C 98.1608 17.4336 98.5775 17.5508 99.0723 17.5508C 99.8861 17.5508 100.531 17.1569 101.006 16.3691C 101.481 15.5814 101.719 14.4941 101.719 13.1074ZM 115.771 18L 111.055 18L 111.055 17.3555C 111.204 17.3424 111.367 17.3294 111.543 17.3164C 111.725 17.3034 111.875 17.2773 111.992 17.2383C 112.174 17.1797 112.308 17.0788 112.393 16.9355C 112.484 16.7858 112.529 16.5938 112.529 16.3594L 112.529 11.4082C 112.529 10.7246 112.367 10.1973 112.041 9.82617C 111.722 9.45508 111.331 9.26953 110.869 9.26953C 110.524 9.26953 110.208 9.32487 109.922 9.43555C 109.635 9.53971 109.382 9.66992 109.16 9.82617C 108.945 9.97591 108.773 10.1387 108.643 10.3145C 108.519 10.4837 108.428 10.6204 108.369 10.7246L 108.369 16.2617C 108.369 16.4831 108.415 16.6654 108.506 16.8086C 108.597 16.9518 108.734 17.0625 108.916 17.1406C 109.053 17.2057 109.199 17.2546 109.355 17.2871C 109.518 17.3197 109.684 17.3424 109.854 17.3555L 109.854 18L 105.137 18L 105.137 17.3555C 105.286 17.3424 105.439 17.3294 105.596 17.3164C 105.758 17.3034 105.898 17.2773 106.016 17.2383C 106.198 17.1797 106.331 17.0788 106.416 16.9355C 106.507 16.7858 106.553 16.5938 106.553 16.3594L 106.553 10.4121C 106.553 10.1908 106.504 9.98893 106.406 9.80664C 106.315 9.61784 106.185 9.46484 106.016 9.34766C 105.892 9.26953 105.745 9.21419 105.576 9.18164C 105.407 9.14258 105.225 9.11654 105.029 9.10352L 105.029 8.46875L 108.232 8.25391L 108.369 8.39062L 108.369 9.74805L 108.418 9.74805C 108.574 9.5918 108.77 9.40625 109.004 9.19141C 109.238 8.97005 109.46 8.79102 109.668 8.6543C 109.909 8.49805 110.195 8.36784 110.527 8.26367C 110.859 8.15951 111.234 8.10742 111.65 8.10742C 112.575 8.10742 113.258 8.39714 113.701 8.97656C 114.15 9.54948 114.375 10.3145 114.375 11.2715L 114.375 16.2812C 114.375 16.5091 114.414 16.6947 114.492 16.8379C 114.57 16.9746 114.704 17.082 114.893 17.1602C 115.049 17.2253 115.182 17.2708 115.293 17.2969C 115.41 17.3229 115.57 17.3424 115.771 17.3555L 115.771 18ZM 120.303 16.877C 120.303 17.2415 120.169 17.554 119.902 17.8145C 119.642 18.0684 119.329 18.1953 118.965 18.1953C 118.6 18.1953 118.285 18.0684 118.018 17.8145C 117.757 17.554 117.627 17.2415 117.627 16.877C 117.627 16.5124 117.757 16.1999 118.018 15.9395C 118.285 15.6725 118.6 15.5391 118.965 15.5391C 119.329 15.5391 119.642 15.6725 119.902 15.9395C 120.169 16.1999 120.303 16.5124 120.303 16.877Z"/>
</defs>
</svg>
