<svg width="1275" height="800" viewBox="0 0 1275 800" version="1.1" xmlns="http://www.w3.org/2000/svg" xmlns:xlink="http://www.w3.org/1999/xlink">
<title>tba</title>
<desc>Created using Figma</desc>
<g id="Canvas" transform="translate(-5959 2263)">
<clipPath id="clip-0" clip-rule="evenodd">
<path d="M 5959 -2263L 7234 -2263L 7234 -1463L 5959 -1463L 5959 -2263Z" fill="#FFFFFF"/>
</clipPath>
<g id="tba" clip-path="url(#clip-0)">
<path d="M 5959 -2263L 7234 -2263L 7234 -1463L 5959 -1463L 5959 -2263Z" fill="#231E1E"/>
<g id="TBA...">
<use xlink:href="#path0_fill" transform="translate(6433 -1935)" fill="#FFFFFF"/>
</g>
</g>
</g>
<defs>
<path id="path0_fill" d="M 32.8945 114L 43.207 114L 43.207 38.8242L 73.6758 38.8242L 73.6758 29.4492L 2.42578 29.4492L 2.42578 38.8242L 32.8945 38.8242L 32.8945 114ZM 86.918 114L 123.949 114C 137.367 114 148.5 105.152 148.5 90.8555C 148.5 79.6641 141.352 72.1641 133.031 71.1094C 140.59 68.5898 146.684 61.3242 146.684 51.7148C 146.684 37.8281 136.254 29.4492 123.246 29.4492L 86.918 29.4492L 86.918 114ZM 97.1719 66.4805L 97.1719 38.8242L 121.605 38.8242C 130.395 38.8242 136.43 43.9219 136.43 52.6523C 136.43 61.3828 130.395 66.4805 121.605 66.4805L 97.1719 66.4805ZM 97.1719 104.625L 97.1719 75.8555L 121.898 75.8555C 131.566 75.8555 138.246 80.8359 138.246 90.2109C 138.246 99.5859 131.508 104.625 121.84 104.625L 97.1719 104.625ZM 225.434 114L 236.156 114L 202.348 29.4492L 189.34 29.4492L 155.238 114L 165.785 114L 174.691 91.5L 216.469 91.5L 225.434 114ZM 178.383 82.125L 195.551 38.8242L 212.777 82.125L 178.383 82.125ZM 252.094 115.23C 256.43 115.23 259.887 111.715 259.887 107.379C 259.887 102.984 256.43 99.5273 252.094 99.5273C 247.699 99.5273 244.242 102.984 244.242 107.379C 244.242 111.715 247.699 115.23 252.094 115.23ZM 281.859 115.23C 286.195 115.23 289.652 111.715 289.652 107.379C 289.652 102.984 286.195 99.5273 281.859 99.5273C 277.465 99.5273 274.008 102.984 274.008 107.379C 274.008 111.715 277.465 115.23 281.859 115.23ZM 311.625 115.23C 315.961 115.23 319.418 111.715 319.418 107.379C 319.418 102.984 315.961 99.5273 311.625 99.5273C 307.23 99.5273 303.773 102.984 303.773 107.379C 303.773 111.715 307.23 115.23 311.625 115.23Z"/>
</defs>
</svg>
