<?xml version="1.0" encoding="utf-8"?>
<!-- Generator: Adobe Illustrator 17.1.0, SVG Export Plug-In . SVG Version: 6.00 Build 0)  -->
<!DOCTYPE svg PUBLIC "-//W3C//DTD SVG 1.1//EN" "http://www.w3.org/Graphics/SVG/1.1/DTD/svg11.dtd">
<svg version="1.1" id="Layer_1" xmlns="http://www.w3.org/2000/svg" xmlns:xlink="http://www.w3.org/1999/xlink" x="0px" y="0px"
	 viewBox="0 0 500 500" enable-background="new 0 0 500 500" xml:space="preserve">
<circle fill="none" stroke="#000000" stroke-miterlimit="10" cx="250" cy="250" r="202.25"/>
<g>
	<g>
		<line fill="none" stroke="#414042" stroke-miterlimit="10" x1="263.769" y1="99.335" x2="5.262" y2="357.842"/>
		<g>
			<path fill="#414042" d="M257.048,100.511c0.048,0.22,0.267,0.359,0.488,0.31l6.102-1.354l-1.354,6.101
				c-0.049,0.221,0.091,0.439,0.31,0.488s0.439-0.092,0.487-0.31l1.493-6.728c0.03-0.136-0.011-0.279-0.11-0.377
				c-0.099-0.099-0.241-0.141-0.377-0.11l-6.728,1.493c-0.078,0.017-0.147,0.056-0.2,0.109
				C257.063,100.228,257.017,100.37,257.048,100.511z"/>
		</g>
	</g>
</g>
<g>
	<g>
		<line fill="none" stroke="#414042" stroke-miterlimit="10" x1="378.906" y1="73.326" x2="120.4" y2="331.833"/>
		<g>
			<path fill="#414042" d="M372.185,74.502c0.048,0.22,0.267,0.359,0.488,0.31l6.102-1.354l-1.354,6.101
				c-0.049,0.221,0.091,0.439,0.31,0.488c0.22,0.049,0.439-0.092,0.487-0.31l1.493-6.728c0.03-0.136-0.011-0.279-0.11-0.377
				c-0.099-0.099-0.241-0.141-0.377-0.11l-6.728,1.493c-0.078,0.017-0.147,0.056-0.2,0.109
				C372.2,74.219,372.154,74.36,372.185,74.502z"/>
		</g>
	</g>
</g>
<g>
	<g>
		<line fill="none" stroke="#414042" stroke-miterlimit="10" x1="385.258" y1="162.051" x2="126.752" y2="420.558"/>
		<g>
			<path fill="#414042" d="M378.538,163.227c0.048,0.22,0.267,0.359,0.488,0.31l6.102-1.354l-1.354,6.101
				c-0.049,0.221,0.09,0.439,0.31,0.488c0.22,0.048,0.439-0.092,0.487-0.31l1.493-6.728c0.03-0.136-0.011-0.279-0.11-0.377
				c-0.099-0.099-0.241-0.141-0.377-0.11l-6.728,1.493c-0.078,0.017-0.147,0.056-0.2,0.109
				C378.552,162.944,378.507,163.085,378.538,163.227z"/>
		</g>
	</g>
</g>
<g>
	<g>
		<line fill="none" stroke="#414042" stroke-miterlimit="10" x1="419.435" y1="64.241" x2="160.929" y2="322.748"/>
		<g>
			<path fill="#414042" d="M412.715,65.417c0.048,0.22,0.267,0.359,0.488,0.31l6.102-1.354l-1.354,6.101
				c-0.049,0.221,0.091,0.439,0.31,0.488s0.439-0.092,0.487-0.31l1.493-6.728c0.03-0.136-0.011-0.279-0.11-0.377
				c-0.099-0.099-0.241-0.141-0.377-0.11l-6.728,1.493c-0.078,0.017-0.147,0.056-0.2,0.109
				C412.73,65.134,412.684,65.275,412.715,65.417z"/>
		</g>
	</g>
</g>
<g>
	<g>
		<line fill="none" stroke="#414042" stroke-miterlimit="10" x1="289.835" y1="156.582" x2="31.328" y2="415.089"/>
		<g>
			<path fill="#414042" d="M283.114,157.757c0.048,0.22,0.267,0.359,0.488,0.31l6.102-1.354l-1.354,6.101
				c-0.049,0.221,0.091,0.439,0.31,0.488c0.22,0.049,0.439-0.092,0.487-0.31l1.493-6.728c0.03-0.136-0.011-0.279-0.11-0.377
				s-0.241-0.141-0.377-0.11l-6.728,1.493c-0.078,0.017-0.147,0.056-0.2,0.109C283.129,157.475,283.083,157.616,283.114,157.757z"/>
		</g>
	</g>
</g>
<g>
	<g>
		<line fill="none" stroke="#414042" stroke-miterlimit="10" x1="355.465" y1="51.611" x2="96.958" y2="310.117"/>
		<g>
			<path fill="#414042" d="M348.743,52.786c0.048,0.22,0.267,0.359,0.488,0.31l6.102-1.354l-1.354,6.101
				c-0.049,0.221,0.091,0.439,0.31,0.488s0.439-0.092,0.487-0.31l1.493-6.728c0.03-0.136-0.011-0.279-0.11-0.377
				c-0.099-0.099-0.241-0.141-0.377-0.11l-6.728,1.493c-0.078,0.017-0.147,0.056-0.2,0.109
				C348.759,52.504,348.713,52.645,348.743,52.786z"/>
		</g>
	</g>
</g>
<g>
	<g>
		<line fill="none" stroke="#414042" stroke-miterlimit="10" x1="450.569" y1="175.03" x2="192.062" y2="433.536"/>
		<g>
			<path fill="#414042" d="M443.847,176.205c0.048,0.22,0.267,0.359,0.488,0.31l6.102-1.354l-1.354,6.101
				c-0.049,0.221,0.091,0.439,0.31,0.488c0.22,0.049,0.439-0.092,0.487-0.31l1.493-6.728c0.03-0.136-0.011-0.279-0.11-0.377
				c-0.099-0.099-0.241-0.141-0.377-0.11l-6.728,1.493c-0.078,0.017-0.147,0.056-0.2,0.109
				C443.863,175.923,443.817,176.063,443.847,176.205z"/>
		</g>
	</g>
</g>
<g>
	<g>
		<line fill="none" stroke="#414042" stroke-miterlimit="10" x1="450.569" y1="70.104" x2="192.062" y2="328.611"/>
		<g>
			<path fill="#414042" d="M443.847,71.28c0.048,0.22,0.267,0.359,0.488,0.31l6.102-1.354l-1.354,6.101
				c-0.049,0.221,0.091,0.439,0.31,0.488c0.22,0.049,0.439-0.092,0.487-0.31l1.493-6.728c0.03-0.136-0.011-0.279-0.11-0.377
				c-0.099-0.099-0.241-0.141-0.377-0.11l-6.728,1.493c-0.078,0.017-0.147,0.056-0.2,0.109
				C443.863,70.997,443.817,71.138,443.847,71.28z"/>
		</g>
	</g>
</g>
<g>
	<g>
		<line fill="none" stroke="#414042" stroke-miterlimit="10" x1="412.284" y1="193.842" x2="153.778" y2="452.348"/>
		<g>
			<path fill="#414042" d="M405.564,195.018c0.048,0.22,0.267,0.359,0.488,0.31l6.102-1.354l-1.354,6.101
				c-0.049,0.221,0.091,0.439,0.31,0.488c0.22,0.049,0.439-0.092,0.487-0.31l1.493-6.728c0.03-0.136-0.011-0.279-0.11-0.377
				c-0.099-0.099-0.241-0.141-0.377-0.11l-6.728,1.493c-0.078,0.017-0.147,0.056-0.2,0.109
				C405.578,194.735,405.533,194.875,405.564,195.018z"/>
		</g>
	</g>
</g>
<g>
	<g>
		<line fill="none" stroke="#414042" stroke-miterlimit="10" x1="363.748" y1="130.219" x2="105.241" y2="388.725"/>
		<g>
			<path fill="#414042" d="M357.026,131.394c0.048,0.22,0.267,0.359,0.488,0.31l6.102-1.354l-1.354,6.101
				c-0.049,0.221,0.091,0.439,0.31,0.488c0.22,0.049,0.439-0.092,0.487-0.31l1.493-6.728c0.03-0.136-0.011-0.279-0.11-0.377
				c-0.099-0.099-0.241-0.141-0.377-0.11l-6.728,1.493c-0.078,0.017-0.147,0.056-0.2,0.109
				C357.042,131.111,356.995,131.252,357.026,131.394z"/>
		</g>
	</g>
</g>
<g>
	<g enable-background="new    ">
		<path fill="#FFFFFF" d="M84.583,168.283h24.345c6.127,0,10.866,2.042,13.888,5.637c2.451,2.859,3.921,6.699,3.921,11.111
			c0,10.702-6.127,17.156-18.872,17.156H91.936v24.509h-7.353V168.283z M91.936,196.223h15.359c8.251,0,12.172-4.166,12.172-10.865
			c0-7.026-4.33-10.702-11.764-10.702H91.936V196.223z"/>
		<path fill="#FFFFFF" d="M163.013,226.695v-5.8h-0.164c-3.022,4.084-6.617,6.781-12.744,6.781c-8.66,0-14.215-5.229-14.215-13.97
			v-29.247h6.618v29.084c0,5.474,3.513,8.66,9.477,8.66c6.699,0,11.029-5.065,11.029-11.764v-25.979h6.617v42.237H163.013z"/>
		<path fill="#FFFFFF" d="M188.667,221.14h-0.164v5.555h-6.617v-58.412h6.617v22.221h0.164c3.186-4.33,7.435-7.026,13.562-7.026
			c10.702,0,17.973,8.169,17.973,22.221c0,13.562-6.781,22.221-18.218,22.221C196.264,227.921,192.098,225.878,188.667,221.14z
			 M213.42,205.781c0-9.477-3.84-16.666-11.846-16.666c-9.231,0-13.479,7.516-13.479,16.666c0,9.477,4.412,16.584,13.398,16.584
			C209.581,222.365,213.42,215.34,213.42,205.781z"/>
		<path fill="#FFFFFF" d="M230.333,168.283h6.617v58.412h-6.617V168.283z"/>
		<path fill="#FFFFFF" d="M249.449,168.283h6.617v8.169h-6.617V168.283z M249.449,184.458h6.617v42.237h-6.617V184.458z"/>
		<path fill="#FFFFFF" d="M265.952,205.618c0-12.254,7.843-22.221,20.424-22.221c9.967,0,16.584,5.719,18.055,14.706h-6.699
			c-0.98-5.719-4.983-9.232-11.355-9.232c-8.986,0-13.643,7.435-13.643,16.748c0,9.313,4.656,16.666,13.643,16.666
			c6.862,0,10.947-3.921,11.52-10.457h6.535c-0.898,10.13-7.516,16.012-18.055,16.012
			C273.795,227.839,265.952,217.872,265.952,205.618z"/>
	</g>
	<g enable-background="new    ">
		<path fill="none" stroke="#000000" stroke-miterlimit="10" d="M84.583,168.283h24.345c6.127,0,10.866,2.042,13.888,5.637
			c2.451,2.859,3.921,6.699,3.921,11.111c0,10.702-6.127,17.156-18.872,17.156H91.936v24.509h-7.353V168.283z M91.936,196.223
			h15.359c8.251,0,12.172-4.166,12.172-10.865c0-7.026-4.33-10.702-11.764-10.702H91.936V196.223z"/>
		<path fill="none" stroke="#000000" stroke-miterlimit="10" d="M163.013,226.695v-5.8h-0.164
			c-3.022,4.084-6.617,6.781-12.744,6.781c-8.66,0-14.215-5.229-14.215-13.97v-29.247h6.618v29.084c0,5.474,3.513,8.66,9.477,8.66
			c6.699,0,11.029-5.065,11.029-11.764v-25.979h6.617v42.237H163.013z"/>
		<path fill="none" stroke="#000000" stroke-miterlimit="10" d="M188.667,221.14h-0.164v5.555h-6.617v-58.412h6.617v22.221h0.164
			c3.186-4.33,7.435-7.026,13.562-7.026c10.702,0,17.973,8.169,17.973,22.221c0,13.562-6.781,22.221-18.218,22.221
			C196.264,227.921,192.098,225.878,188.667,221.14z M213.42,205.781c0-9.477-3.84-16.666-11.846-16.666
			c-9.231,0-13.479,7.516-13.479,16.666c0,9.477,4.412,16.584,13.398,16.584C209.581,222.365,213.42,215.34,213.42,205.781z"/>
		<path fill="none" stroke="#000000" stroke-miterlimit="10" d="M230.333,168.283h6.617v58.412h-6.617V168.283z"/>
		<path fill="none" stroke="#000000" stroke-miterlimit="10" d="M249.449,168.283h6.617v8.169h-6.617V168.283z M249.449,184.458
			h6.617v42.237h-6.617V184.458z"/>
		<path fill="none" stroke="#000000" stroke-miterlimit="10" d="M265.952,205.618c0-12.254,7.843-22.221,20.424-22.221
			c9.967,0,16.584,5.719,18.055,14.706h-6.699c-0.98-5.719-4.983-9.232-11.355-9.232c-8.986,0-13.643,7.435-13.643,16.748
			c0,9.313,4.656,16.666,13.643,16.666c6.862,0,10.947-3.921,11.52-10.457h6.535c-0.898,10.13-7.516,16.012-18.055,16.012
			C273.795,227.839,265.952,217.872,265.952,205.618z"/>
	</g>
	<g enable-background="new    ">
		<path fill="#FFFFFF" d="M103.395,304.964h7.189c0.98,9.886,7.026,15.032,18.055,15.032c8.088,0,13.889-3.677,13.889-10.947
			c0-8.006-7.026-9.885-17.483-12.173c-10.294-2.287-19.117-5.229-19.117-16.257c0-9.641,8.006-15.44,19.852-15.44
			c14.624,0,20.669,7.434,22.14,18.218h-6.944c-1.062-8.333-6.454-12.499-15.032-12.499c-7.924,0-13.153,3.349-13.153,9.395
			c0,6.617,6.536,8.578,15.277,10.294c11.356,2.287,21.731,5.064,21.731,18.218c0,10.947-8.905,17.074-21.486,17.074
			C111.891,325.878,104.048,316.729,103.395,304.964z"/>
		<path fill="#FFFFFF" d="M158.133,303.657c0-12.255,8.006-22.222,20.016-22.222c12.663,0,19.443,9.804,19.443,23.773h-32.678
			c0.49,8.578,5.147,15.114,13.643,15.114c6.127,0,10.212-2.941,11.683-8.66h6.454c-1.961,9.068-8.578,14.215-18.137,14.215
			C165.649,325.878,158.133,315.911,158.133,303.657z M165.077,300.226h25.407c-0.409-8.414-4.738-13.562-12.336-13.562
			C170.306,286.664,166.057,292.546,165.077,300.226z"/>
		<path fill="#FFFFFF" d="M213.933,289.523h0.163c2.533-4.085,6.944-7.516,12.581-7.516c1.226,0,1.879,0.163,2.696,0.49v6.372
			h-0.245c-0.98-0.327-1.634-0.408-2.941-0.408c-6.536,0-12.254,4.901-12.254,12.826v23.446h-6.618v-42.236h6.618V289.523z"/>
		<path fill="#FFFFFF" d="M234.275,282.498h7.107l8.742,26.796c1.225,3.758,2.777,8.905,2.777,8.905h0.163
			c0,0,1.553-5.229,2.778-8.905l8.904-26.796h6.862l-15.195,42.236h-7.353L234.275,282.498z"/>
		<path fill="#FFFFFF" d="M279.536,266.322h6.617v8.169h-6.617V266.322z M279.536,282.498h6.617v42.236h-6.617V282.498z"/>
		<path fill="#FFFFFF" d="M296.039,303.657c0-12.255,7.843-22.222,20.424-22.222c9.967,0,16.584,5.719,18.055,14.705h-6.699
			c-0.98-5.719-4.983-9.231-11.355-9.231c-8.986,0-13.643,7.435-13.643,16.748s4.656,16.666,13.643,16.666
			c6.862,0,10.947-3.922,11.52-10.457h6.535c-0.898,10.13-7.516,16.012-18.055,16.012
			C303.882,325.878,296.039,315.911,296.039,303.657z"/>
		<path fill="#FFFFFF" d="M341.708,303.657c0-12.255,8.006-22.222,20.016-22.222c12.663,0,19.443,9.804,19.443,23.773h-32.678
			c0.489,8.578,5.146,15.114,13.643,15.114c6.127,0,10.212-2.941,11.683-8.66h6.454c-1.961,9.068-8.578,14.215-18.137,14.215
			C349.224,325.878,341.708,315.911,341.708,303.657z M348.652,300.226h25.407c-0.408-8.414-4.738-13.562-12.336-13.562
			C353.881,286.664,349.633,292.546,348.652,300.226z"/>
		<path fill="#FFFFFF" d="M388.194,311.01h6.781c0.898,7.353,5.8,9.395,12.091,9.395c6.944,0,9.804-3.022,9.804-6.944
			c0-4.738-3.268-5.963-11.029-7.598c-8.333-1.715-15.767-3.431-15.767-12.662c0-7.026,5.392-11.601,15.195-11.601
			c10.457,0,15.604,4.983,16.584,13.234h-6.781c-0.653-5.556-3.676-8.006-9.967-8.006c-6.045,0-8.496,2.695-8.496,6.045
			c0,4.575,4.085,5.474,11.355,6.944c8.496,1.716,15.604,3.595,15.604,13.316c0,8.496-6.944,12.826-16.666,12.826
			C395.303,325.96,388.849,320.486,388.194,311.01z"/>
	</g>
	<g enable-background="new    ">
		<path fill="none" stroke="#000000" stroke-miterlimit="10" d="M103.395,304.964h7.189c0.98,9.886,7.026,15.032,18.055,15.032
			c8.088,0,13.889-3.677,13.889-10.947c0-8.006-7.026-9.885-17.483-12.173c-10.294-2.287-19.117-5.229-19.117-16.257
			c0-9.641,8.006-15.44,19.852-15.44c14.624,0,20.669,7.434,22.14,18.218h-6.944c-1.062-8.333-6.454-12.499-15.032-12.499
			c-7.924,0-13.153,3.349-13.153,9.395c0,6.617,6.536,8.578,15.277,10.294c11.356,2.287,21.731,5.064,21.731,18.218
			c0,10.947-8.905,17.074-21.486,17.074C111.891,325.878,104.048,316.729,103.395,304.964z"/>
		<path fill="none" stroke="#000000" stroke-miterlimit="10" d="M158.133,303.657c0-12.255,8.006-22.222,20.016-22.222
			c12.663,0,19.443,9.804,19.443,23.773h-32.678c0.49,8.578,5.147,15.114,13.643,15.114c6.127,0,10.212-2.941,11.683-8.66h6.454
			c-1.961,9.068-8.578,14.215-18.137,14.215C165.649,325.878,158.133,315.911,158.133,303.657z M165.077,300.226h25.407
			c-0.409-8.414-4.738-13.562-12.336-13.562C170.306,286.664,166.057,292.546,165.077,300.226z"/>
		<path fill="none" stroke="#000000" stroke-miterlimit="10" d="M213.933,289.523h0.163c2.533-4.085,6.944-7.516,12.581-7.516
			c1.226,0,1.879,0.163,2.696,0.49v6.372h-0.245c-0.98-0.327-1.634-0.408-2.941-0.408c-6.536,0-12.254,4.901-12.254,12.826v23.446
			h-6.618v-42.236h6.618V289.523z"/>
		<path fill="none" stroke="#000000" stroke-miterlimit="10" d="M234.275,282.498h7.107l8.742,26.796
			c1.225,3.758,2.777,8.905,2.777,8.905h0.163c0,0,1.553-5.229,2.778-8.905l8.904-26.796h6.862l-15.195,42.236h-7.353
			L234.275,282.498z"/>
		<path fill="none" stroke="#000000" stroke-miterlimit="10" d="M279.536,266.322h6.617v8.169h-6.617V266.322z M279.536,282.498
			h6.617v42.236h-6.617V282.498z"/>
		<path fill="none" stroke="#000000" stroke-miterlimit="10" d="M296.039,303.657c0-12.255,7.843-22.222,20.424-22.222
			c9.967,0,16.584,5.719,18.055,14.705h-6.699c-0.98-5.719-4.983-9.231-11.355-9.231c-8.986,0-13.643,7.435-13.643,16.748
			s4.656,16.666,13.643,16.666c6.862,0,10.947-3.922,11.52-10.457h6.535c-0.898,10.13-7.516,16.012-18.055,16.012
			C303.882,325.878,296.039,315.911,296.039,303.657z"/>
		<path fill="none" stroke="#000000" stroke-miterlimit="10" d="M341.708,303.657c0-12.255,8.006-22.222,20.016-22.222
			c12.663,0,19.443,9.804,19.443,23.773h-32.678c0.489,8.578,5.146,15.114,13.643,15.114c6.127,0,10.212-2.941,11.683-8.66h6.454
			c-1.961,9.068-8.578,14.215-18.137,14.215C349.224,325.878,341.708,315.911,341.708,303.657z M348.652,300.226h25.407
			c-0.408-8.414-4.738-13.562-12.336-13.562C353.881,286.664,349.633,292.546,348.652,300.226z"/>
		<path fill="none" stroke="#000000" stroke-miterlimit="10" d="M388.194,311.01h6.781c0.898,7.353,5.8,9.395,12.091,9.395
			c6.944,0,9.804-3.022,9.804-6.944c0-4.738-3.268-5.963-11.029-7.598c-8.333-1.715-15.767-3.431-15.767-12.662
			c0-7.026,5.392-11.601,15.195-11.601c10.457,0,15.604,4.983,16.584,13.234h-6.781c-0.653-5.556-3.676-8.006-9.967-8.006
			c-6.045,0-8.496,2.695-8.496,6.045c0,4.575,4.085,5.474,11.355,6.944c8.496,1.716,15.604,3.595,15.604,13.316
			c0,8.496-6.944,12.826-16.666,12.826C395.303,325.96,388.849,320.486,388.194,311.01z"/>
	</g>
</g>
</svg>
