<?xml version="1.0" encoding="utf-8"?>
<!-- Generator: Adobe Illustrator 17.1.0, SVG Export Plug-In . SVG Version: 6.00 Build 0)  -->
<!DOCTYPE svg PUBLIC "-//W3C//DTD SVG 1.1//EN" "http://www.w3.org/Graphics/SVG/1.1/DTD/svg11.dtd">
<svg version="1.1" id="Layer_1" xmlns="http://www.w3.org/2000/svg" xmlns:xlink="http://www.w3.org/1999/xlink" x="0px" y="0px"
	 viewBox="0 0 612 518.793" enable-background="new 0 0 612 518.793" xml:space="preserve">
<circle fill="#FFFFFF" stroke="#000000" stroke-miterlimit="10" cx="306" cy="259.396" r="247.554"/>
<g>
	<g>
		<line fill="none" stroke="#414042" stroke-miterlimit="10" x1="322.853" y1="74.983" x2="6.441" y2="391.395"/>
		<g>
			<path fill="#414042" d="M314.627,76.422c0.059,0.269,0.327,0.44,0.597,0.38l7.469-1.657l-1.657,7.468
				c-0.06,0.27,0.111,0.537,0.38,0.597s0.537-0.113,0.596-0.38l1.827-8.235c0.037-0.167-0.014-0.341-0.135-0.462
				c-0.121-0.121-0.295-0.172-0.462-0.135l-8.235,1.827c-0.096,0.021-0.18,0.069-0.245,0.134
				C314.645,76.076,314.589,76.249,314.627,76.422z"/>
		</g>
	</g>
</g>
<g>
	<g>
		<line fill="none" stroke="#414042" stroke-miterlimit="10" x1="463.781" y1="43.148" x2="147.369" y2="359.56"/>
		<g>
			<path fill="#414042" d="M455.554,44.587c0.059,0.269,0.327,0.44,0.597,0.38l7.469-1.657l-1.657,7.468
				c-0.06,0.27,0.111,0.537,0.38,0.597s0.537-0.113,0.596-0.38l1.827-8.235c0.037-0.167-0.014-0.341-0.135-0.462
				c-0.121-0.121-0.295-0.172-0.462-0.135l-8.235,1.827c-0.096,0.021-0.18,0.069-0.245,0.134
				C455.573,44.241,455.516,44.413,455.554,44.587z"/>
		</g>
	</g>
</g>
<g>
	<g>
		<line fill="none" stroke="#414042" stroke-miterlimit="10" x1="471.556" y1="151.747" x2="155.144" y2="468.159"/>
		<g>
			<path fill="#414042" d="M463.33,153.186c0.059,0.269,0.327,0.44,0.597,0.38l7.469-1.657l-1.657,7.468
				c-0.06,0.27,0.11,0.537,0.38,0.597c0.269,0.059,0.537-0.113,0.596-0.38l1.827-8.235c0.037-0.167-0.014-0.341-0.135-0.462
				s-0.295-0.172-0.462-0.135l-8.235,1.827c-0.096,0.021-0.18,0.069-0.245,0.134C463.348,152.84,463.292,153.013,463.33,153.186z"/>
		</g>
	</g>
</g>
<g>
	<g>
		<line fill="none" stroke="#414042" stroke-miterlimit="10" x1="513.389" y1="32.028" x2="196.977" y2="348.44"/>
		<g>
			<path fill="#414042" d="M505.163,33.467c0.059,0.269,0.327,0.44,0.597,0.38l7.469-1.657l-1.657,7.468
				c-0.06,0.27,0.111,0.537,0.38,0.597s0.537-0.113,0.596-0.38l1.827-8.235c0.037-0.167-0.014-0.341-0.135-0.462
				c-0.121-0.121-0.295-0.172-0.462-0.135l-8.235,1.827c-0.096,0.021-0.18,0.069-0.245,0.134
				C505.181,33.121,505.125,33.293,505.163,33.467z"/>
		</g>
	</g>
</g>
<g>
	<g>
		<line fill="none" stroke="#414042" stroke-miterlimit="10" x1="354.758" y1="145.053" x2="38.346" y2="461.465"/>
		<g>
			<path fill="#414042" d="M346.532,146.491c0.059,0.269,0.327,0.44,0.597,0.38l7.469-1.657l-1.657,7.468
				c-0.06,0.27,0.111,0.537,0.38,0.597s0.537-0.113,0.596-0.38l1.827-8.235c0.037-0.167-0.014-0.341-0.135-0.462
				c-0.121-0.121-0.295-0.172-0.462-0.135l-8.235,1.827c-0.096,0.021-0.18,0.069-0.245,0.134
				C346.55,146.146,346.494,146.318,346.532,146.491z"/>
		</g>
	</g>
</g>
<g>
	<g>
		<line fill="none" stroke="#414042" stroke-miterlimit="10" x1="435.089" y1="16.568" x2="118.677" y2="332.98"/>
		<g>
			<path fill="#414042" d="M426.862,18.007c0.059,0.269,0.327,0.44,0.597,0.38l7.469-1.657l-1.657,7.468
				c-0.06,0.27,0.111,0.537,0.38,0.597s0.537-0.113,0.596-0.38l1.827-8.235c0.037-0.167-0.014-0.341-0.135-0.462
				c-0.121-0.121-0.295-0.172-0.462-0.135l-8.235,1.827c-0.096,0.021-0.18,0.069-0.245,0.134
				C426.881,17.661,426.825,17.834,426.862,18.007z"/>
		</g>
	</g>
</g>
<g>
	<g>
		<line fill="none" stroke="#414042" stroke-miterlimit="10" x1="551.496" y1="167.633" x2="235.084" y2="484.045"/>
		<g>
			<path fill="#414042" d="M543.269,169.072c0.059,0.269,0.327,0.44,0.597,0.38l7.469-1.657l-1.657,7.468
				c-0.06,0.27,0.111,0.537,0.38,0.597s0.537-0.113,0.596-0.38l1.827-8.235c0.037-0.167-0.014-0.341-0.135-0.462
				c-0.121-0.121-0.295-0.172-0.462-0.135l-8.235,1.827c-0.096,0.021-0.18,0.069-0.245,0.134
				C543.288,168.726,543.232,168.898,543.269,169.072z"/>
		</g>
	</g>
</g>
<g>
	<g>
		<line fill="none" stroke="#414042" stroke-miterlimit="10" x1="551.496" y1="39.204" x2="235.084" y2="355.616"/>
		<g>
			<path fill="#414042" d="M543.269,40.643c0.059,0.269,0.327,0.44,0.597,0.38l7.469-1.657l-1.657,7.468
				c-0.06,0.27,0.111,0.537,0.38,0.597s0.537-0.113,0.596-0.38l1.827-8.235c0.037-0.167-0.014-0.341-0.135-0.462
				c-0.121-0.121-0.295-0.172-0.462-0.135l-8.235,1.827c-0.096,0.021-0.18,0.069-0.245,0.134
				C543.288,40.297,543.232,40.47,543.269,40.643z"/>
		</g>
	</g>
</g>
<g>
	<g>
		<line fill="none" stroke="#414042" stroke-miterlimit="10" x1="504.636" y1="190.659" x2="188.224" y2="507.071"/>
		<g>
			<path fill="#414042" d="M496.41,192.098c0.059,0.269,0.327,0.44,0.597,0.38l7.469-1.657l-1.657,7.468
				c-0.06,0.27,0.111,0.537,0.38,0.597s0.537-0.113,0.596-0.38l1.827-8.235c0.037-0.167-0.014-0.341-0.135-0.462
				c-0.121-0.121-0.295-0.172-0.462-0.135l-8.235,1.827c-0.096,0.021-0.18,0.069-0.245,0.134
				C496.428,191.752,496.372,191.924,496.41,192.098z"/>
		</g>
	</g>
</g>
<g>
	<g>
		<line fill="none" stroke="#414042" stroke-miterlimit="10" x1="445.227" y1="112.784" x2="128.815" y2="429.196"/>
		<g>
			<path fill="#414042" d="M437,114.223c0.059,0.269,0.327,0.44,0.597,0.38l7.469-1.657l-1.657,7.468
				c-0.06,0.27,0.111,0.537,0.38,0.597s0.537-0.113,0.596-0.38l1.827-8.235c0.037-0.167-0.014-0.341-0.135-0.462
				c-0.121-0.121-0.295-0.172-0.462-0.135l-8.235,1.827c-0.096,0.021-0.18,0.069-0.245,0.134
				C437.019,113.877,436.962,114.049,437,114.223z"/>
		</g>
	</g>
</g>
<g>
	<text transform="matrix(1 0 0 1 96.8298 230.8716)"><tspan x="0" y="0" fill="#FFFFFF" stroke="#000000" stroke-miterlimit="10" font-family="'HaasGrotDisp-55Roman'" font-size="100" letter-spacing="4">Public</tspan><tspan x="0" y="120" fill="#FFFFFF" stroke="#000000" stroke-miterlimit="10" font-family="'HaasGrotDisp-55Roman'" font-size="100" letter-spacing="11">	</tspan><tspan x="27.526" y="120" fill="#FFFFFF" stroke="#000000" stroke-miterlimit="10" font-family="'HaasGrotDisp-55Roman'" font-size="100" letter-spacing="4">Services</tspan></text>
</g>
</svg>
